<svg id="Layer_1" data-name="Layer 1" xmlns="http://www.w3.org/2000/svg" viewBox="0 0 595.28 621.68"><defs><style>.cls-1{fill:#c33;}.cls-1,.cls-2,.cls-3,.cls-4{fill-rule:evenodd;}.cls-2{fill:#090b0b;}.cls-3{fill:#bc2026;}.cls-4{fill:#fff;}</style></defs><title>26 Years Logo Graphic Era </title><polygon class="cls-1" points="483.85 102.68 494.96 102.74 486.81 111.36 490.2 121.95 479.48 116.88 470.45 123.37 471.96 111.6 463.01 105.02 474.67 102.83 478.15 92.28 483.85 102.68"/><path class="cls-1" d="M497.54,350.35a3,3,0,0,0-.54-2,1.67,1.67,0,0,0-1.28-.63,2.45,2.45,0,0,0-1.59.74c-1.09,1-2.22,2.88-3.41,5.78a20.22,20.22,0,0,0-1.77,7.31,2.67,2.67,0,0,0,.39,1.6,1.1,1.1,0,0,0,.87.51,2.39,2.39,0,0,0,1.6-.72,23,23,0,0,0,5.73-12.59m10.16-14.29-7.63,25.17a15.36,15.36,0,0,0-.73,2.86.58.58,0,0,0,.18.42.52.52,0,0,0,.37.18,1.53,1.53,0,0,0,.88-.38,10.47,10.47,0,0,0,2-2.4l.83.43q-3.19,5.57-7,5.56a2.91,2.91,0,0,1-2.09-.7,2.39,2.39,0,0,1-.74-1.8,11.27,11.27,0,0,1,.59-3l.71-2.3q-2.82,5-4.89,6.6a5.14,5.14,0,0,1-3.07,1.2,3.6,3.6,0,0,1-2.85-1.37,6,6,0,0,1-1.17-4,15.83,15.83,0,0,1,1.5-6.61,21.46,21.46,0,0,1,3.47-5.44,14.24,14.24,0,0,1,3.74-3.12,7.62,7.62,0,0,1,3.51-.93,3.28,3.28,0,0,1,1.59.37,6,6,0,0,1,1.58,1.4l1.74-5.58a12,12,0,0,0,.68-3.07,1.25,1.25,0,0,0-.45-.95,1.77,1.77,0,0,0-1.22-.39,7.93,7.93,0,0,0-.88.06l.18-.87,7.76-1.34Zm-38.57,10.37-2.88,9.66a56.82,56.82,0,0,1,4.46-5.79,15.49,15.49,0,0,1,3.75-3.06,6.48,6.48,0,0,1,3-.81,2.79,2.79,0,0,1,2.13.95,3.48,3.48,0,0,1,.88,2.48,10.16,10.16,0,0,1-.57,3l-3.07,9.46a6.81,6.81,0,0,0-.4,1.61.67.67,0,0,0,.17.41.53.53,0,0,0,.36.17.9.9,0,0,0,.47-.17,9.12,9.12,0,0,0,1.6-1.83c.13-.21.35-.52.65-.93l.88.51q-3.35,5.47-7,5.48a3.18,3.18,0,0,1-2.21-.72,2.35,2.35,0,0,1-.8-1.81,10.56,10.56,0,0,1,.59-2.82l3.05-9.63a4.68,4.68,0,0,0,.32-1.39.56.56,0,0,0-.22-.44.74.74,0,0,0-.51-.19,3.77,3.77,0,0,0-2.26,1.17,31.76,31.76,0,0,0-6.55,8.87L463,367.3h-5.8l4.32-14.4a18.56,18.56,0,0,0,.69-3,1.07,1.07,0,0,0-.2-.65,1.34,1.34,0,0,0-.64-.41,6.24,6.24,0,0,0-1.69-.15l.19-.87,7.88-1.34ZM448.47,351a4.73,4.73,0,0,0-.57-2.62,1.31,1.31,0,0,0-1.12-.56,2.18,2.18,0,0,0-1.45.67c-1,.92-2.12,2.81-3.29,5.64a19.65,19.65,0,0,0-1.76,7.34,2.87,2.87,0,0,0,.4,1.72,1.1,1.1,0,0,0,.87.53,2.92,2.92,0,0,0,2.06-1.17,18.47,18.47,0,0,0,2.69-4.06A16.69,16.69,0,0,0,448.47,351Zm7.22-4.29-4.43,15-.46,1.82a2.43,2.43,0,0,0-.07.49.64.64,0,0,0,.19.47.57.57,0,0,0,.39.2,2.27,2.27,0,0,0,1.28-.71,19,19,0,0,0,1.6-2.07l.78.41a12.92,12.92,0,0,1-3.4,4.25,6.4,6.4,0,0,1-3.89,1.33,2.69,2.69,0,0,1-1.95-.65,2.25,2.25,0,0,1-.66-1.66,13.59,13.59,0,0,1,.73-3.25l.55-1.83a21.83,21.83,0,0,1-5,6.32,4.72,4.72,0,0,1-3,1.07,3.16,3.16,0,0,1-3-1.7,7.81,7.81,0,0,1-.92-3.83,17.31,17.31,0,0,1,1.94-7.27,18,18,0,0,1,5.12-6.6,8,8,0,0,1,4.89-2.07,2.81,2.81,0,0,1,2,.73,4.86,4.86,0,0,1,1.13,2.66l.83-2.75Zm-28.34-.32-4,12.66c2.72-6.18,4.76-10,6.14-11.4a3.51,3.51,0,0,1,2.54-1.26,1.88,1.88,0,0,1,1.49.68,3,3,0,0,1,.57,1.94,6.26,6.26,0,0,1-1,3.67,1.83,1.83,0,0,1-1.47.94,1.42,1.42,0,0,1-1.33-.82,3.75,3.75,0,0,0-.62-1,.54.54,0,0,0-.37-.14.87.87,0,0,0-.46.14,4.55,4.55,0,0,0-1.26,1.32,21.29,21.29,0,0,0-1.94,3.51c-.76,1.65-1.35,3.05-1.78,4.18s-1.09,3.28-2,6.42h-5.5l4.27-14.9a11.28,11.28,0,0,0,.43-2.21,1.5,1.5,0,0,0-.27-.94,1.62,1.62,0,0,0-.73-.5,7.38,7.38,0,0,0-1.91-.16l.19-.64,7.52-1.52Zm-29,5.53-3.9,13.59c.75,0,1.3.05,1.67.05,3.32,0,5.61-.94,6.91-2.81a10.39,10.39,0,0,0,1.94-6,5.1,5.1,0,0,0-.75-2.72,4.11,4.11,0,0,0-1.93-1.64A11.77,11.77,0,0,0,398.31,352Zm.49-1.71a10.68,10.68,0,0,0,4.76-1,6.59,6.59,0,0,0,2.8-3,9,9,0,0,0,1.06-4,3.91,3.91,0,0,0-1.09-2.85,3.81,3.81,0,0,0-2.92-1l-1.23,0Zm-6.93-13.5H404a27.56,27.56,0,0,1,5.79.43,6.15,6.15,0,0,1,3.54,2.11,5.51,5.51,0,0,1,1.26,3.55,6.4,6.4,0,0,1-1,3.31,7.73,7.73,0,0,1-3,2.79,24.6,24.6,0,0,1-6.15,2q4.33,1.19,6,3.06a6.26,6.26,0,0,1,1.69,4.34,7.8,7.8,0,0,1-1.63,4.59,9.33,9.33,0,0,1-4.3,3.31c-1.79.7-5.07,1-9.84,1H383.63l.29-.78a7.24,7.24,0,0,0,2.64-.34,2.89,2.89,0,0,0,1.29-1.05,12.24,12.24,0,0,0,1.13-3l5.39-18.79a18.19,18.19,0,0,0,.83-3.88,1.64,1.64,0,0,0-.66-1.33,5.62,5.62,0,0,0-2.89-.61Zm-21.3,13-3,10.36a60.65,60.65,0,0,1-3.85,10.65,13.17,13.17,0,0,1-4.09,4.91,9.32,9.32,0,0,1-5.36,1.59,4.33,4.33,0,0,1-2.79-.74,2.16,2.16,0,0,1-.9-1.73,2.08,2.08,0,0,1,.74-1.6,2.75,2.75,0,0,1,2-.68,2.18,2.18,0,0,1,1.55.52,1.76,1.76,0,0,1,.54,1.32,1.54,1.54,0,0,1-.34,1.07c-.22.23-.34.39-.34.46l.11.16a.5.5,0,0,0,.32.11,1.59,1.59,0,0,0,1.12-.43,6.49,6.49,0,0,0,1.74-2.56c.27-.7.78-2.51,1.52-5.47l5.15-17.94h-2.88l.69-2.68a4.71,4.71,0,0,0,2.41-.43,5,5,0,0,0,1.6-2,19,19,0,0,1,5.14-6.57,9.84,9.84,0,0,1,6-2,4.71,4.71,0,0,1,3.1.83,2.73,2.73,0,0,1,1,2.16,2.57,2.57,0,0,1-.65,1.86,2.14,2.14,0,0,1-1.61.68A2.06,2.06,0,0,1,378,341a1.8,1.8,0,0,1-.58-1.35,2.34,2.34,0,0,1,.37-1.19,2.28,2.28,0,0,0,.38-.85.59.59,0,0,0-.17-.41.66.66,0,0,0-.44-.16,3.66,3.66,0,0,0-2.64,1.66c-1.46,1.75-2.65,4.53-3.54,8.34h2.86l-.69,2.68Zm-21.43-2.12a2.87,2.87,0,0,0-2,.7c-1.06.94-2.25,3.15-3.57,6.61a26.73,26.73,0,0,0-2,9.38,2.39,2.39,0,0,0,.63,1.71,2,2,0,0,0,1.49.68,2.4,2.4,0,0,0,1.55-.54,12,12,0,0,0,2.44-3.64,32.41,32.41,0,0,0,2.37-6.22,24.16,24.16,0,0,0,.92-6.23,2.64,2.64,0,0,0-.56-1.82A1.71,1.71,0,0,0,349.14,347.63Zm.93-1.2a7.15,7.15,0,0,1,3.35.82,5.56,5.56,0,0,1,2.37,2.28,6.68,6.68,0,0,1,.8,3.24,14.76,14.76,0,0,1-2,7.28,15.8,15.8,0,0,1-5.36,5.75,12.54,12.54,0,0,1-6.72,2.1,6.08,6.08,0,0,1-4.74-1.82,6.26,6.26,0,0,1-1.68-4.45,13.86,13.86,0,0,1,1.25-5.86,17.09,17.09,0,0,1,3.18-4.76,16,16,0,0,1,4.42-3.31A11.29,11.29,0,0,1,350.07,346.43Z"/><path class="cls-1" d="M548.32,575.41v-11a20.88,20.88,0,0,0-6.37,5.36,6.59,6.59,0,0,0-1.37,3.85,4,4,0,0,0,1.17,2.85,3.19,3.19,0,0,0,2.47,1c1.18,0,2.54-.68,4.1-2m0,2.6c-4,3.57-7.66,5.36-10.85,5.36a6.44,6.44,0,0,1-4.72-1.86,6.29,6.29,0,0,1-1.87-4.64,9.1,9.1,0,0,1,3.26-6.8q3.25-3,14.18-8v-3.32a16.06,16.06,0,0,0-.41-4.7,3.84,3.84,0,0,0-1.55-1.68,4.68,4.68,0,0,0-2.55-.73,6.48,6.48,0,0,0-3.8,1,1.8,1.8,0,0,0-.92,1.48,3.08,3.08,0,0,0,1,1.83,4.56,4.56,0,0,1,1.34,2.93,3.84,3.84,0,0,1-1.29,2.94,4.69,4.69,0,0,1-3.36,1.22A5.4,5.4,0,0,1,533,561.7a4.08,4.08,0,0,1-1.5-3.13,7.34,7.34,0,0,1,2-4.86,12.94,12.94,0,0,1,5.62-3.54,23.08,23.08,0,0,1,7.5-1.23,12.36,12.36,0,0,1,7.43,2,9.28,9.28,0,0,1,3.56,4.31,28,28,0,0,1,.49,6.8v12.79a12.88,12.88,0,0,0,.18,2.83,1.7,1.7,0,0,0,.53.87,1.35,1.35,0,0,0,.81.28,2.59,2.59,0,0,0,1.91-1.27l1.06.82a12.68,12.68,0,0,1-3.67,3.81,7.81,7.81,0,0,1-4.29,1.2,6.74,6.74,0,0,1-4.42-1.33A6.06,6.06,0,0,1,548.32,578Zm-36.66-28.13,0,7.52c2.17-3.41,4.09-5.68,5.72-6.79a8.48,8.48,0,0,1,4.74-1.67,4.23,4.23,0,0,1,3.16,1.21,4.73,4.73,0,0,1,1.18,3.44,5.41,5.41,0,0,1-1.14,3.67,3.56,3.56,0,0,1-2.76,1.3,4.7,4.7,0,0,1-3.22-1.2,17,17,0,0,0-1.62-1.33,1.46,1.46,0,0,0-.8-.22,2.9,2.9,0,0,0-1.93.77,7.4,7.4,0,0,0-2.19,3.44,24.34,24.34,0,0,0-1.12,7.56l0,7.58v2a8.09,8.09,0,0,0,.25,2.6,2.78,2.78,0,0,0,1.25,1.4,7.36,7.36,0,0,0,2.84.55v1.23H498.13V581.7a4,4,0,0,0,2.93-1.18c.51-.67.76-2.45.76-5.32V556.89a14,14,0,0,0-.29-3.66,2.8,2.8,0,0,0-1-1.47,5.25,5.25,0,0,0-2.37-.65v-1.23ZM467,537.73v19.53h1c3,0,5.25-1,6.63-2.86s2.24-4.72,2.61-8.43h1.38v25.1h-1.38a18.33,18.33,0,0,0-1.78-6.71,7.75,7.75,0,0,0-3.17-3.52,11.93,11.93,0,0,0-5.24-.91v13.48a19.31,19.31,0,0,0,.33,4.84,2.82,2.82,0,0,0,1.26,1.44,5.93,5.93,0,0,0,3,.57h2.87c4.47,0,8.07-1,10.77-3.1s4.64-5.21,5.81-9.45h1.31l-2.16,15.22H448.73V581.7h1.58a6.68,6.68,0,0,0,3.35-.74,3.3,3.3,0,0,0,1.41-1.71,15.12,15.12,0,0,0,.39-4.49V543.15a24.77,24.77,0,0,0-.19-4,3.24,3.24,0,0,0-1.3-1.91,6,6,0,0,0-3.66-1h-1.58V535H488.8v14.17h-1.38c-.67-3.47-1.64-5.95-2.87-7.46a10.55,10.55,0,0,0-5.22-3.32,27.78,27.78,0,0,0-7.38-.64Zm-40.51,36.63,1.1.85a16.52,16.52,0,0,1-5.83,6.52,13.91,13.91,0,0,1-7.41,2.14,12.82,12.82,0,0,1-10.57-5,18.64,18.64,0,0,1-4-12,20,20,0,0,1,3.61-11.84,13.87,13.87,0,0,1,12-6.17,12.09,12.09,0,0,1,8.15,2.58,7.46,7.46,0,0,1,3,5.74,4.15,4.15,0,0,1-4.41,4.41,4.63,4.63,0,0,1-3.45-1.38c-.91-.91-1.47-2.55-1.68-4.9a5.38,5.38,0,0,0-1-3.11,2.47,2.47,0,0,0-1.9-.88,3.49,3.49,0,0,0-2.91,1.79q-1.83,2.71-1.83,8.31a26.71,26.71,0,0,0,1.48,8.89,13.6,13.6,0,0,0,4.08,6.32,7.28,7.28,0,0,0,4.6,1.52,6.88,6.88,0,0,0,3.29-.81A14.79,14.79,0,0,0,426.45,574.36Zm-34.12-24.48v26.18c0,2.35.28,3.86.82,4.52a4.51,4.51,0,0,0,3.23,1.12v1.23h-18V581.7a4.37,4.37,0,0,0,3.33-1.29c.48-.54.72-2,.72-4.35V556.75c0-2.36-.28-3.86-.83-4.52a4.5,4.5,0,0,0-3.22-1.12v-1.23Zm-5-16a5.23,5.23,0,0,1,3.88,1.61,5.3,5.3,0,0,1,1.59,3.87,5.18,5.18,0,0,1-1.61,3.85,5.46,5.46,0,0,1-7.72,0,5.24,5.24,0,0,1-1.59-3.85,5.3,5.3,0,0,1,1.59-3.87A5.19,5.19,0,0,1,387.37,533.89ZM352.75,535v19.19a20.31,20.31,0,0,1,5-4,10,10,0,0,1,4.68-1.18,8.24,8.24,0,0,1,5.3,1.76,8.48,8.48,0,0,1,2.92,4.16,31,31,0,0,1,.72,8v12.88c0,2.53.23,4.11.7,4.74a4,4,0,0,0,2.85,1.19v1.23H358.18V581.7a3.83,3.83,0,0,0,2.63-1.42c.42-.62.62-2.12.62-4.51V561.05a24.36,24.36,0,0,0-.31-5.13,3.25,3.25,0,0,0-1.07-1.63,2.67,2.67,0,0,0-1.69-.58,4.67,4.67,0,0,0-2.74,1,12.51,12.51,0,0,0-2.87,3.41v17.68c0,2.36.18,3.85.54,4.44A3.35,3.35,0,0,0,356,581.7v1.23H339.3V581.7a4,4,0,0,0,2.95-1.35c.4-.51.6-2.05.6-4.58V542.14c0-2.52-.23-4.1-.69-4.72a4.18,4.18,0,0,0-2.86-1.22V535ZM311.8,576c2,2.85,4.2,4.29,6.51,4.29a3.63,3.63,0,0,0,3.15-2q1.85-3,1.84-11.25,0-8.52-2-11.65a4.1,4.1,0,0,0-3.61-2.07c-2.38,0-4.35,1.71-5.88,5.13Zm0,3.56V591.9a10,10,0,0,0,.41,3.5,2.64,2.64,0,0,0,1.26,1.35,8.35,8.35,0,0,0,3.32.43v1.23h-19v-1.23a4.43,4.43,0,0,0,3.33-1.25c.48-.55.72-2,.72-4.24V556.75c0-2.36-.28-3.86-.83-4.52a4.49,4.49,0,0,0-3.22-1.12v-1.23h14v4.34a12.61,12.61,0,0,1,3.54-3.67,10.37,10.37,0,0,1,5.6-1.61,10.55,10.55,0,0,1,6.62,2.29,14.2,14.2,0,0,1,4.53,6.33,23.86,23.86,0,0,1,1.56,8.69A24.91,24.91,0,0,1,332,575.4a13.35,13.35,0,0,1-4.66,6.3,11.4,11.4,0,0,1-6.79,2.17,11,11,0,0,1-5.09-1.2A13.35,13.35,0,0,1,311.8,579.53Zm-30.74-4.12v-11a21,21,0,0,0-6.36,5.36,6.53,6.53,0,0,0-1.38,3.85,4,4,0,0,0,1.17,2.85,3.19,3.19,0,0,0,2.47,1Q278.73,577.44,281.06,575.41Zm0,2.6c-4,3.57-7.65,5.36-10.85,5.36a6.41,6.41,0,0,1-4.71-1.86,6.29,6.29,0,0,1-1.87-4.64,9.1,9.1,0,0,1,3.26-6.8q3.25-3,14.17-8v-3.32a15.7,15.7,0,0,0-.41-4.7,3.75,3.75,0,0,0-1.54-1.68,4.72,4.72,0,0,0-2.56-.73,6.47,6.47,0,0,0-3.79,1,1.77,1.77,0,0,0-.92,1.48,3.08,3.08,0,0,0,1,1.83,4.56,4.56,0,0,1,1.34,2.93,3.84,3.84,0,0,1-1.29,2.94,4.71,4.71,0,0,1-3.37,1.22,5.39,5.39,0,0,1-3.72-1.34,4.09,4.09,0,0,1-1.51-3.13,7.35,7.35,0,0,1,2-4.86,12.84,12.84,0,0,1,5.61-3.54,23.17,23.17,0,0,1,7.5-1.23,12.37,12.37,0,0,1,7.44,2,9.34,9.34,0,0,1,3.56,4.31,28.58,28.58,0,0,1,.49,6.8v12.79a12.88,12.88,0,0,0,.18,2.83,1.7,1.7,0,0,0,.53.87,1.33,1.33,0,0,0,.81.28,2.58,2.58,0,0,0,1.9-1.27l1.06.82a12.66,12.66,0,0,1-3.66,3.81,7.81,7.81,0,0,1-4.29,1.2A6.79,6.79,0,0,1,283,582,6.06,6.06,0,0,1,281.06,578ZM244.4,549.88l0,7.52q3.25-5.11,5.72-6.79a8.43,8.43,0,0,1,4.74-1.67,4.24,4.24,0,0,1,3.16,1.21,4.77,4.77,0,0,1,1.18,3.44,5.41,5.41,0,0,1-1.14,3.67,3.58,3.58,0,0,1-2.77,1.3,4.71,4.71,0,0,1-3.22-1.2,16.19,16.19,0,0,0-1.61-1.33,1.49,1.49,0,0,0-.81-.22,2.94,2.94,0,0,0-1.93.77,7.46,7.46,0,0,0-2.18,3.44,24,24,0,0,0-1.12,7.56l0,7.58v2a8,8,0,0,0,.26,2.6,2.78,2.78,0,0,0,1.25,1.4,7.36,7.36,0,0,0,2.84.55v1.23H230.88V581.7a4,4,0,0,0,2.93-1.18c.5-.67.75-2.45.75-5.32V556.89a14.12,14.12,0,0,0-.28-3.66,2.8,2.8,0,0,0-1-1.47,5.25,5.25,0,0,0-2.37-.65v-1.23Zm-22.48-16v16.85h-1.23a21.44,21.44,0,0,0-7.11-10.45,16.88,16.88,0,0,0-10.37-3.58,13.38,13.38,0,0,0-9,3,16.35,16.35,0,0,0-5.06,8.41,41.64,41.64,0,0,0-1.49,11.08,40.58,40.58,0,0,0,1.62,12.07,13.73,13.73,0,0,0,5.25,7.62,15,15,0,0,0,8.58,2.43,17.31,17.31,0,0,0,3.54-.37,24.24,24.24,0,0,0,3.73-1.07V570a11,11,0,0,0-.39-3.73,3.58,3.58,0,0,0-1.6-1.52,5.85,5.85,0,0,0-2.93-.69h-1.23v-1.23h23.29v1.23a10.18,10.18,0,0,0-3.71.74,3.63,3.63,0,0,0-1.6,1.86,9.86,9.86,0,0,0-.33,3.34v9.91a48,48,0,0,1-9.55,3.08,50.23,50.23,0,0,1-10.29,1,29.78,29.78,0,0,1-11.31-1.86,28.15,28.15,0,0,1-8-4.87,22.93,22.93,0,0,1-5.37-6.8,23.56,23.56,0,0,1-2.47-10.9,24.59,24.59,0,0,1,7.59-18.25q7.62-7.44,19.13-7.45a26.69,26.69,0,0,1,11.48,2.16,20.48,20.48,0,0,0,4.11,1.31,2.78,2.78,0,0,0,1.84-.72,6.37,6.37,0,0,0,1.56-2.75Z"/><path class="cls-1" d="M379.8,50.92l-.13,3.52c.71,13.54,6.34,25.48-5.24,50.92C364.1,128,208.6,323.42,196.49,332.38c-2.12,1.56-20.16,6.42-24.43,6.55,1.14-4.46,11.74-20.37,14.86-25.73l.46-.8c22.64-42,47.14-85,62.74-130.1,14.36-41.57,39.1-102.72,3.44-139.57-22.24-23-66.06-14.93-90.28-2.16-37.5,20.93-56.67,51-74.63,90L74.47,167.85c-1,3-2.49,7.25,2.61,7.35,5.37.12,5.55-7.74,7-11.26C140.76,29,271.28,40.73,211,238.32c-6.35,17.61-14.16,33.94-22.27,50.9-6.07,12.69-25.34,52.28-31.93,55.85C116.2,361.31,97,366.13,51.38,399.67c-27.29,24-40.25,48.22-28.7,70.26,23.7,45.22,104.72-47.68,117-76.07.4-.57.64-.9.87-1.17a8.39,8.39,0,0,1,.79-.78c4.17-3.74,34.82-9.94,40.69-9.38-6,206.64,278.3,135.33,263.2-4.41l-43.38,0c-9.47,85.11-109.31,126.07-161.33,57a69.58,69.58,0,0,1-4.19-6.79c-.26-.45-2-3.76-2.13-3.95l-4.1-12c-2-7.57-2.16-12.13-1.76-21.28.22-5.15,2.22-14.21,4.6-17,11.29-8.95,78.86.36,92.91,1.23.87-6.55,2.22-7.57,2.56-13.34,3.66-61.9-17.2-43.55-63.27-42.7,1.14-4.07,7.12-10.49,10.26-14.09l9.2-10.37,1.84-1.8c35.8-41.12,68.91-75.21,96.45-121.77,5.42-11.34,12.35-23.47,15.7-36.69a95.31,95.31,0,0,0,2.92-32.88c-2.16-23.23-13.34-40.15-20.15-48.76Zm-249,341.53c-.6,3.94-.17,2.09-1.59,4.52-13.45,18.78-76.65,86.62-97.33,54.12l-.9-1.71c-.68-1.89-.2.18-.53-2.14a10.69,10.69,0,0,1,2.3-8.95l2.35-2.52a29.1,29.1,0,0,1,2.49-2.44C49.19,422.68,113.12,393.54,130.82,392.45Z"/><path class="cls-1" d="M556,324.4l-15.33-68.75,46-55.8-68.21-4.23-24-32.79c5.37,81.25-35,139.51-41.58,156.42l35.87-21.41Z"/><path class="cls-2" d="M434.66,336.14c8.65-12.48,17.33-25.35,25-40.58,45.64-90.17,22.43-150.68,23.24-161.09-2.42,18.67,2.72,39.94-16.31,60.67-6.1,6.65-10.7,8.41-12.9,11.81,4.74,7.8,30.2,34.84,5.18,47.46-3.5-2.53-4.54-4.37-8.29-6.84.68-8.57,6.71-18.68,1.72-38.9-4-.94-7.08,1.94-13.17,4.14a94,94,0,0,1-14.45,3.95c-12.52,2.17-21.42,1.86-34.31,2.52,4.11,2.72,12.37,4.31,17.12,6.16,39.75,15.51,43.44,57,32.21,94.15-.7,2.34-6.41,15.17-6.3,15.62Z"/><path class="cls-3" d="M318.72,280.14c11.57,9.3,62.77,37.29,72.53,48.75,11.91-.17,30.33-1.32,41.53-3-15.81-33.78-59.63-58.51-88.53-77.4l-15,17.88c-.23.28-.9,1-1.14,1.3l-7.2,8.66c-2.53,3.41-.79-1-2.18,3.81"/><path class="cls-2" d="M401.55,193.85c14.18,2.45,7.55,6.19,11,16.29,4.86-1.62,5.6-1.76,6.83-5.93-5.64-4.56-5.13-.91-7.92-9.9l11.39-1c2.79,9.57,13.17,18.26,25.92,10.86,15.63-9.08,2.55-28.14,2.54-28.14l9.74-17.31-38.52,4.61Z"/><path class="cls-4" d="M319.52,339.84l-1,7.22h-.86a6.77,6.77,0,0,0-1.72-4.38,4.49,4.49,0,0,0-3.27-1.6,2.52,2.52,0,0,0-1.77.63,2,2,0,0,0-.7,1.52,3.29,3.29,0,0,0,.3,1.4,7.66,7.66,0,0,0,1.35,1.78,34.89,34.89,0,0,1,4.48,5.45,6.54,6.54,0,0,1,.8,3.19,6.88,6.88,0,0,1-.93,3.46,6.74,6.74,0,0,1-2.8,2.63,8.13,8.13,0,0,1-3.87,1,13.93,13.93,0,0,1-3.34-.51,8.59,8.59,0,0,0-2-.35,2.22,2.22,0,0,0-.91.16,2.55,2.55,0,0,0-.72.7h-.86l1.15-7.75h.76a19,19,0,0,0,1.53,4.05,5.38,5.38,0,0,0,1.89,1.93,4.5,4.5,0,0,0,2.28.71,2.94,2.94,0,0,0,2.12-.8,2.58,2.58,0,0,0,.84-1.93,4.35,4.35,0,0,0-.55-2.12,18.63,18.63,0,0,0-2.53-3.21,26.58,26.58,0,0,1-3.59-4.58,5.78,5.78,0,0,1-.6-2.68,5.48,5.48,0,0,1,1.82-4.22,7.27,7.27,0,0,1,5.14-1.69,14.51,14.51,0,0,1,3.53.53,7.14,7.14,0,0,0,1.67.27,1.72,1.72,0,0,0,1.47-.8Zm-24.13,0L291.24,353q4.25-9.6,6.37-11.83a3.67,3.67,0,0,1,2.64-1.3,1.94,1.94,0,0,1,1.55.71,3.07,3.07,0,0,1,.59,2,6.49,6.49,0,0,1-1.08,3.81,1.9,1.9,0,0,1-1.53,1,1.47,1.47,0,0,1-1.37-.86,3.81,3.81,0,0,0-.65-1,.51.51,0,0,0-.38-.15.88.88,0,0,0-.47.14,4.77,4.77,0,0,0-1.32,1.37,23.4,23.4,0,0,0-2,3.65c-.79,1.71-1.4,3.16-1.85,4.34s-1.12,3.41-2.05,6.66H284L288.41,346a11.34,11.34,0,0,0,.44-2.29,1.51,1.51,0,0,0-.28-1,1.66,1.66,0,0,0-.75-.52,8,8,0,0,0-2-.16l.19-.67,7.81-1.57Zm-20.62,4.79a4.89,4.89,0,0,0-.59-2.73,1.34,1.34,0,0,0-1.15-.58,2.29,2.29,0,0,0-1.52.7q-1.58,1.44-3.41,5.85a20.42,20.42,0,0,0-1.82,7.62,3,3,0,0,0,.41,1.78,1.12,1.12,0,0,0,.9.55,3,3,0,0,0,2.15-1.21,19.36,19.36,0,0,0,2.79-4.21A17.53,17.53,0,0,0,274.77,344.63Zm7.5-4.46-4.59,15.52-.48,1.89a2.87,2.87,0,0,0-.08.52.7.7,0,0,0,.21.49.55.55,0,0,0,.39.2,2.41,2.41,0,0,0,1.34-.74,17.73,17.73,0,0,0,1.65-2.14l.82.42a13.25,13.25,0,0,1-3.54,4.41,6.65,6.65,0,0,1-4,1.39,2.8,2.8,0,0,1-2-.68,2.3,2.3,0,0,1-.7-1.72,14.21,14.21,0,0,1,.77-3.38l.56-1.9a22.73,22.73,0,0,1-5.21,6.57,5,5,0,0,1-3.08,1.11,3.29,3.29,0,0,1-3.12-1.76,8.22,8.22,0,0,1-1-4,17.94,17.94,0,0,1,2-7.55,18.61,18.61,0,0,1,5.31-6.86,8.34,8.34,0,0,1,5.08-2.14,3,3,0,0,1,2.11.75,5.16,5.16,0,0,1,1.17,2.77l.86-2.86Zm-36.61,11.34a12.06,12.06,0,0,0,3.21-.83A7,7,0,0,0,251.1,349a10.06,10.06,0,0,0,1.9-2.9,7.87,7.87,0,0,0,.8-3.29,1.38,1.38,0,0,0-.37-1,1.23,1.23,0,0,0-.92-.38A3.82,3.82,0,0,0,250,343,22.33,22.33,0,0,0,245.66,351.51Zm-.21,1.19a19.1,19.1,0,0,0-.21,2.51,3.84,3.84,0,0,0,1,2.8,3.6,3.6,0,0,0,2.72,1.06,8.3,8.3,0,0,0,3.29-.71,17.27,17.27,0,0,0,3.83-2.45l.71.59a18.06,18.06,0,0,1-5.23,4.33,12.12,12.12,0,0,1-5.63,1.3c-2.59,0-4.4-.63-5.39-1.87a6.69,6.69,0,0,1-1.49-4.32,15,15,0,0,1,2.23-7.65,17.09,17.09,0,0,1,6.07-6.14,14.87,14.87,0,0,1,7.72-2.31,4.23,4.23,0,0,1,3,.93,3.05,3.05,0,0,1,1,2.35,6.29,6.29,0,0,1-1,3.31,11,11,0,0,1-3.43,3.53,15.9,15.9,0,0,1-4.61,2A26.85,26.85,0,0,1,245.45,352.7Zm-24-5.2L218.79,336a10.11,10.11,0,0,0-1.64-4.14,4.4,4.4,0,0,0-2.64-1.2l.26-.82H230l-.27.82a4.79,4.79,0,0,0-3.24.9,2.81,2.81,0,0,0-1,2.17,14.4,14.4,0,0,0,.42,2.71l2.09,9.3,5.09-7a27,27,0,0,0,2.46-3.85,5.12,5.12,0,0,0,.48-2,2.05,2.05,0,0,0-.63-1.48,3.38,3.38,0,0,0-2-.79l.26-.82h9.51v.82a4.27,4.27,0,0,0-2.23.85A27.33,27.33,0,0,0,237.2,336l-9,12.38-1.87,7.35a18.24,18.24,0,0,0-.68,2.67,2.13,2.13,0,0,0,.78,1.68,4,4,0,0,0,2.59.66h.89l-.26.81H213.52l.25-.81a6.45,6.45,0,0,0,2.84-.48,3.89,3.89,0,0,0,1.61-1.31,15.81,15.81,0,0,0,1.1-3Z"/></svg>